# xmcd
#
# Track frame offsets:
#	150
#	14044
#	32954
#	46870
#	62526
#	78836
#	95932
#	111207
#	127405
#	149661
#	163596
#	184759
#	202687
#	216060
#	232546
#	251552
#	273502
#	290202
#
# Disc length: 4069 seconds
#
# Revision: 0
# Processed by: cddbd v1.5PL3 Copyright (c) Steve Scherf et al.
# Submitted via: dBpowerAMP V4.0
#
DISCID=0e0fe312
DTITLE=Tim McGraw - Greatest Hits and More
DYEAR=2000
DGENRE=Country
TTITLE0=Indian Outlaw
TTITLE1=Don't Take The Girl
TTITLE2=She Never Lets It Go To Her Heart
TTITLE3=I Like It, I Love It
TTITLE4=Just to See You Smile
TTITLE5=It's Your Love (with Faith Hill)
TTITLE6=Where the Green Grass Grows
TTITLE7=For A Little While
TTITLE8=Please Remember Me
TTITLE9=Something Like That
TTITLE10=My Best Friend
TTITLE11=Maybe We Should Sleep On It
TTITLE12=Down On The Farm
TTITLE13=Let's Make Love (with Faith Hill)
TTITLE14=My Next Thirty Years
TTITLE15=Everywhere
TTITLE16=You Turn Me On
TTITLE17=Things Change
EXTD=
EXTT0=
EXTT1=
EXTT2=
EXTT3=
EXTT4=
EXTT5=
EXTT6=
EXTT7=
EXTT8=
EXTT9=
EXTT10=
EXTT11=
EXTT12=
EXTT13=
EXTT14=
EXTT15=
EXTT16=
EXTT17=
PLAYORDER=
